<?xml version="1.0" encoding="UTF-8"?>
<svg xmlns="http://www.w3.org/2000/svg" width="314" height="289" viewBox="0 0 314 289" fill="none">
  <g clip-path="url(#clip0_701_43)">
    <path d="M306.5 144.5C306.5 223.415 239.629 287.5 157 287.5C74.3705 287.5 7.5 223.415 7.5 144.5C7.5 65.5848 74.3705 1.5 157 1.5C239.629 1.5 306.5 65.5848 306.5 144.5Z" stroke="#5EB2ED" stroke-width="3"></path>
    <path d="M806.5 -1324C806.5 -1245.08 739.629 -1181 657 -1181C574.37 -1181 507.5 -1245.08 507.5 -1324C507.5 -1402.92 574.37 -1467 657 -1467C739.629 -1467 806.5 -1402.92 806.5 -1324Z" stroke="#5EB2ED" stroke-width="3"></path>
    <path d="M47.4375 134H37.7869V102.727H47.8651C50.8987 102.727 53.4946 103.353 55.6527 104.605C57.8108 105.847 59.4651 107.634 60.6154 109.965C61.7657 112.286 62.3409 115.065 62.3409 118.303C62.3409 121.56 61.7607 124.365 60.6001 126.716C59.4396 129.058 57.7498 130.859 55.5305 132.122C53.3113 133.374 50.6136 134 47.4375 134ZM41.5739 130.641H47.1932C49.7789 130.641 51.9218 130.142 53.6218 129.144C55.3219 128.147 56.5893 126.726 57.424 124.884C58.2588 123.041 58.6761 120.848 58.6761 118.303C58.6761 115.778 58.2638 113.605 57.4393 111.782C56.6147 109.95 55.3829 108.545 53.744 107.568C52.105 106.58 50.0639 106.087 47.6207 106.087H41.5739V130.641ZM68.6932 134V102.727H79.2599C81.7031 102.727 83.7086 103.145 85.2763 103.979C86.844 104.804 88.0045 105.939 88.7578 107.385C89.5111 108.83 89.8878 110.474 89.8878 112.317C89.8878 114.159 89.5111 115.793 88.7578 117.218C88.0045 118.644 86.8491 119.763 85.2915 120.578C83.734 121.382 81.7438 121.784 79.321 121.784H70.7699V118.364H79.1989C80.8684 118.364 82.2121 118.119 83.2301 117.631C84.2583 117.142 85.0014 116.45 85.4595 115.554C85.9278 114.648 86.1619 113.569 86.1619 112.317C86.1619 111.065 85.9278 109.97 85.4595 109.034C84.9912 108.097 84.243 107.374 83.2148 106.865C82.1867 106.346 80.8277 106.087 79.1378 106.087H72.4801V134H68.6932ZM83.4134 119.952L91.1094 134H86.7116L79.1378 119.952H83.4134ZM98.3358 134.244C97.5825 134.244 96.9361 133.975 96.3966 133.435C95.857 132.895 95.5873 132.249 95.5873 131.496C95.5873 130.742 95.857 130.096 96.3966 129.556C96.9361 129.017 97.5825 128.747 98.3358 128.747C99.0892 128.747 99.7356 129.017 100.275 129.556C100.815 130.096 101.084 130.742 101.084 131.496C101.084 131.995 100.957 132.453 100.703 132.87C100.458 133.287 100.128 133.623 99.7101 133.878C99.3029 134.122 98.8448 134.244 98.3358 134.244ZM108.04 134V102.727H111.827V118.241H112.193L126.242 102.727H131.189L118.057 116.837L131.189 134H126.608L115.736 119.463L111.827 123.861V134H108.04ZM156.613 102.727H160.4V123.433C160.4 125.571 159.896 127.48 158.889 129.159C157.891 130.829 156.481 132.147 154.659 133.114C152.837 134.071 150.699 134.55 148.245 134.55C145.792 134.55 143.654 134.071 141.832 133.114C140.01 132.147 138.595 130.829 137.587 129.159C136.589 127.48 136.091 125.571 136.091 123.433V102.727H139.878V123.128C139.878 124.655 140.214 126.014 140.885 127.205C141.557 128.386 142.514 129.317 143.756 129.999C145.008 130.671 146.505 131.007 148.245 131.007C149.986 131.007 151.483 130.671 152.735 129.999C153.987 129.317 154.944 128.386 155.606 127.205C156.277 126.014 156.613 124.655 156.613 123.128V102.727ZM166.924 134V131.251L183.782 106.087H166.741V102.727H188.302V105.476L171.444 130.641H188.485V134H166.924ZM46.1548 186.489C44.2003 186.489 42.4748 185.995 40.9783 185.007C39.4819 184.01 38.3112 182.605 37.4663 180.793C36.6213 178.971 36.1989 176.818 36.1989 174.334C36.1989 171.87 36.6213 169.732 37.4663 167.92C38.3112 166.108 39.487 164.709 40.9936 163.721C42.5002 162.734 44.241 162.24 46.2159 162.24C47.7429 162.24 48.9492 162.495 49.8349 163.004C50.7307 163.502 51.4128 164.072 51.881 164.714C52.3595 165.345 52.7311 165.864 52.9957 166.271H53.3011V154.727H56.9048V186H53.4233V182.396H52.9957C52.7311 182.824 52.3544 183.363 51.8658 184.015C51.3771 184.656 50.6798 185.231 49.7738 185.74C48.8678 186.239 47.6615 186.489 46.1548 186.489ZM46.6435 183.251C48.089 183.251 49.3106 182.875 50.3082 182.121C51.3059 181.358 52.0643 180.304 52.5835 178.961C53.1026 177.607 53.3622 176.044 53.3622 174.273C53.3622 172.522 53.1077 170.99 52.5987 169.676C52.0897 168.353 51.3364 167.325 50.3388 166.592C49.3411 165.849 48.1094 165.477 46.6435 165.477C45.1165 165.477 43.844 165.869 42.826 166.653C41.8182 167.427 41.0598 168.48 40.5508 169.814C40.052 171.137 39.8026 172.624 39.8026 174.273C39.8026 175.942 40.0571 177.459 40.5661 178.823C41.0852 180.177 41.8487 181.256 42.8565 182.06C43.8745 182.854 45.1368 183.251 46.6435 183.251ZM73.8391 186.489C71.5792 186.489 69.6297 185.99 67.9908 184.992C66.362 183.984 65.1048 182.58 64.2191 180.778C63.3436 178.966 62.9059 176.858 62.9059 174.456C62.9059 172.054 63.3436 169.936 64.2191 168.104C65.1048 166.261 66.3365 164.826 67.9144 163.798C69.5025 162.759 71.3552 162.24 73.4727 162.24C74.6942 162.24 75.9006 162.444 77.0916 162.851C78.2827 163.258 79.3668 163.92 80.3441 164.836C81.3214 165.742 82.1001 166.943 82.6804 168.44C83.2607 169.936 83.5508 171.779 83.5508 173.967V175.494H65.4712V172.379H79.886C79.886 171.056 79.6213 169.875 79.092 168.837C78.5728 167.798 77.8297 166.979 76.8626 166.378C75.9057 165.778 74.7757 165.477 73.4727 165.477C72.0373 165.477 70.7953 165.834 69.7468 166.546C68.7085 167.249 67.9093 168.165 67.3494 169.295C66.7895 170.425 66.5096 171.636 66.5096 172.929V175.006C66.5096 176.777 66.815 178.279 67.4258 179.51C68.0468 180.732 68.907 181.663 70.0064 182.305C71.1058 182.936 72.3834 183.251 73.8391 183.251C74.7859 183.251 75.641 183.119 76.4045 182.854C77.1781 182.58 77.8449 182.172 78.4048 181.633C78.9647 181.083 79.3974 180.401 79.7028 179.587L83.1843 180.564C82.8178 181.745 82.2019 182.783 81.3366 183.679C80.4714 184.565 79.4025 185.257 78.13 185.756C76.8575 186.244 75.4272 186.489 73.8391 186.489ZM92.6364 171.891V186H89.0327V162.545H92.5142V166.21H92.8196C93.3693 165.019 94.2041 164.062 95.3239 163.339C96.4437 162.607 97.8892 162.24 99.6605 162.24C101.249 162.24 102.638 162.566 103.829 163.217C105.02 163.859 105.947 164.836 106.608 166.149C107.27 167.452 107.601 169.101 107.601 171.097V186H103.997V171.341C103.997 169.498 103.519 168.063 102.562 167.035C101.605 165.996 100.292 165.477 98.6222 165.477C97.4718 165.477 96.4437 165.727 95.5376 166.225C94.6418 166.724 93.9343 167.452 93.4151 168.409C92.896 169.366 92.6364 170.527 92.6364 171.891ZM124.386 162.545V165.599H112.231V162.545H124.386ZM115.774 156.926H119.378V179.281C119.378 180.299 119.525 181.063 119.821 181.572C120.126 182.071 120.513 182.406 120.981 182.58C121.46 182.742 121.963 182.824 122.493 182.824C122.89 182.824 123.216 182.804 123.47 182.763C123.725 182.712 123.928 182.671 124.081 182.641L124.814 185.878C124.57 185.969 124.228 186.061 123.791 186.153C123.353 186.254 122.798 186.305 122.126 186.305C121.108 186.305 120.111 186.087 119.133 185.649C118.166 185.211 117.362 184.544 116.721 183.648C116.09 182.753 115.774 181.623 115.774 180.259V156.926ZM136.709 186.55C135.223 186.55 133.874 186.27 132.663 185.71C131.451 185.14 130.489 184.32 129.777 183.251C129.064 182.172 128.708 180.869 128.708 179.342C128.708 177.999 128.972 176.909 129.502 176.075C130.031 175.23 130.739 174.568 131.624 174.089C132.51 173.611 133.487 173.255 134.556 173.021C135.635 172.776 136.719 172.583 137.809 172.44C139.234 172.257 140.389 172.12 141.275 172.028C142.171 171.926 142.822 171.758 143.229 171.524C143.647 171.29 143.855 170.883 143.855 170.303V170.18C143.855 168.674 143.443 167.503 142.619 166.668C141.804 165.834 140.567 165.416 138.908 165.416C137.188 165.416 135.839 165.793 134.861 166.546C133.884 167.299 133.197 168.104 132.8 168.959L129.38 167.737C129.99 166.312 130.805 165.202 131.823 164.408C132.851 163.604 133.971 163.044 135.182 162.729C136.404 162.403 137.605 162.24 138.786 162.24C139.539 162.24 140.404 162.332 141.382 162.515C142.369 162.688 143.321 163.049 144.237 163.599C145.164 164.149 145.932 164.978 146.543 166.088C147.154 167.198 147.459 168.684 147.459 170.547V186H143.855V182.824H143.672C143.428 183.333 143.021 183.877 142.451 184.458C141.88 185.038 141.122 185.532 140.175 185.939C139.229 186.346 138.073 186.55 136.709 186.55ZM137.259 183.312C138.684 183.312 139.885 183.033 140.862 182.473C141.85 181.913 142.593 181.19 143.092 180.304C143.601 179.419 143.855 178.487 143.855 177.51V174.212C143.703 174.395 143.367 174.563 142.848 174.716C142.339 174.858 141.748 174.985 141.076 175.097C140.415 175.199 139.768 175.291 139.137 175.372C138.516 175.443 138.012 175.504 137.625 175.555C136.689 175.678 135.813 175.876 134.999 176.151C134.195 176.416 133.543 176.818 133.044 177.357C132.556 177.887 132.311 178.609 132.311 179.526C132.311 180.778 132.775 181.724 133.701 182.366C134.637 182.997 135.823 183.312 137.259 183.312ZM157.64 154.727V186H154.037V154.727H157.64ZM185.863 186.489C183.664 186.489 181.771 185.969 180.182 184.931C178.594 183.893 177.373 182.462 176.518 180.64C175.663 178.818 175.235 176.736 175.235 174.395C175.235 172.013 175.673 169.911 176.548 168.088C177.434 166.256 178.666 164.826 180.244 163.798C181.832 162.759 183.684 162.24 185.802 162.24C187.451 162.24 188.937 162.545 190.261 163.156C191.584 163.767 192.668 164.622 193.513 165.722C194.358 166.821 194.882 168.104 195.086 169.57H191.482C191.207 168.501 190.597 167.554 189.65 166.729C188.713 165.895 187.451 165.477 185.863 165.477C184.458 165.477 183.226 165.844 182.168 166.577C181.119 167.299 180.3 168.323 179.709 169.646C179.129 170.959 178.839 172.501 178.839 174.273C178.839 176.085 179.124 177.663 179.694 179.006C180.274 180.35 181.088 181.394 182.137 182.137C183.196 182.88 184.438 183.251 185.863 183.251C186.799 183.251 187.649 183.089 188.413 182.763C189.176 182.437 189.823 181.969 190.352 181.358C190.882 180.747 191.258 180.014 191.482 179.159H195.086C194.882 180.544 194.378 181.791 193.574 182.9C192.78 184 191.726 184.875 190.413 185.527C189.11 186.168 187.593 186.489 185.863 186.489ZM203.958 154.727V186H200.354V154.727H203.958ZM210.558 186V162.545H214.162V186H210.558ZM212.39 158.636C211.688 158.636 211.082 158.397 210.573 157.919C210.075 157.44 209.825 156.865 209.825 156.193C209.825 155.521 210.075 154.946 210.573 154.468C211.082 153.989 211.688 153.75 212.39 153.75C213.093 153.75 213.693 153.989 214.192 154.468C214.701 154.946 214.956 155.521 214.956 156.193C214.956 156.865 214.701 157.44 214.192 157.919C213.693 158.397 213.093 158.636 212.39 158.636ZM224.366 171.891V186H220.762V162.545H224.244V166.21H224.549C225.099 165.019 225.934 164.062 227.053 163.339C228.173 162.607 229.619 162.24 231.39 162.24C232.978 162.24 234.368 162.566 235.559 163.217C236.75 163.859 237.676 164.836 238.338 166.149C238.999 167.452 239.33 169.101 239.33 171.097V186H235.727V171.341C235.727 169.498 235.248 168.063 234.291 167.035C233.334 165.996 232.021 165.477 230.352 165.477C229.201 165.477 228.173 165.727 227.267 166.225C226.371 166.724 225.664 167.452 225.145 168.409C224.625 169.366 224.366 170.527 224.366 171.891ZM245.915 186V162.545H249.519V186H245.915ZM247.748 158.636C247.045 158.636 246.44 158.397 245.931 157.919C245.432 157.44 245.183 156.865 245.183 156.193C245.183 155.521 245.432 154.946 245.931 154.468C246.44 153.989 247.045 153.75 247.748 153.75C248.45 153.75 249.051 153.989 249.55 154.468C250.059 154.946 250.313 155.521 250.313 156.193C250.313 156.865 250.059 157.44 249.55 157.919C249.051 158.397 248.45 158.636 247.748 158.636ZM265.648 186.489C263.449 186.489 261.556 185.969 259.968 184.931C258.38 183.893 257.158 182.462 256.303 180.64C255.448 178.818 255.02 176.736 255.02 174.395C255.02 172.013 255.458 169.911 256.333 168.088C257.219 166.256 258.451 164.826 260.029 163.798C261.617 162.759 263.469 162.24 265.587 162.24C267.236 162.24 268.722 162.545 270.046 163.156C271.369 163.767 272.453 164.622 273.298 165.722C274.143 166.821 274.667 168.104 274.871 169.57H271.267C270.992 168.501 270.382 167.554 269.435 166.729C268.498 165.895 267.236 165.477 265.648 165.477C264.243 165.477 263.011 165.844 261.953 166.577C260.904 167.299 260.085 168.323 259.494 169.646C258.914 170.959 258.624 172.501 258.624 174.273C258.624 176.085 258.909 177.663 259.479 179.006C260.059 180.35 260.874 181.394 261.922 182.137C262.981 182.88 264.223 183.251 265.648 183.251C266.585 183.251 267.435 183.089 268.198 182.763C268.962 182.437 269.608 181.969 270.137 181.358C270.667 180.747 271.043 180.014 271.267 179.159H274.871C274.667 180.544 274.164 181.791 273.359 182.9C272.565 184 271.512 184.875 270.198 185.527C268.895 186.168 267.379 186.489 265.648 186.489Z" fill="url(#paint0_linear_701_43)"></path>
  </g>
  <defs>
    <linearGradient id="paint0_linear_701_43" x1="47.6869" y1="145" x2="218.773" y2="145" gradientUnits="userSpaceOnUse">
      <stop stop-color="#2683DC"></stop>
      <stop offset="1" stop-color="#BEDEF0"></stop>
    </linearGradient>
    <clipPath id="clip0_701_43">
      <rect width="314" height="289" fill="white"></rect>
    </clipPath>
  </defs>
</svg>
